<svg xmlns="http://www.w3.org/2000/svg" width="1200" height="800"><rect x="0" y="0" width="1200" height="800" fill="white"/>
<circle cx="600" cy="419" r="4" fill="#ff9900"/>
<circle cx="600" cy="425" r="4" fill="#ff9900"/>
<circle cx="600" cy="431" r="4" fill="#ff9900"/>
<circle cx="600" cy="436" r="4" fill="#ff9900"/>
<circle cx="600" cy="442" r="4" fill="#ff9900"/>
<circle cx="600" cy="448" r="4" fill="#ff9900"/>
<circle cx="600" cy="454" r="4" fill="#ff9900"/>
<circle cx="600" cy="460" r="4" fill="#ff9900"/>
<circle cx="600" cy="465" r="4" fill="#ff9900"/>
<circle cx="600" cy="471" r="4" fill="#ff9900"/>
<circle cx="600" cy="477" r="4" fill="#ff9900"/>
<circle cx="600" cy="483" r="4" fill="#ff9900"/>
<circle cx="600" cy="489" r="4" fill="#ff9900"/>
<circle cx="600" cy="494" r="4" fill="#ff9900"/>
<circle cx="600" cy="500" r="4" fill="#ff9900"/>
<circle cx="600" cy="506" r="4" fill="#ff9900"/>
<circle cx="600" cy="512" r="4" fill="#ff9900"/>
<circle cx="600" cy="518" r="4" fill="#ff9900"/>
<circle cx="600" cy="523" r="4" fill="#ff9900"/>
<circle cx="600" cy="529" r="4" fill="#ff9900"/>
<circle cx="600" cy="535" r="4" fill="#ff9900"/>
<circle cx="600" cy="541" r="4" fill="#ff9900"/>
<circle cx="600" cy="547" r="4" fill="#ff9900"/>
<circle cx="600" cy="552" r="4" fill="#ff9900"/>
<circle cx="600" cy="558" r="4" fill="#ff9900"/>
<circle cx="600" cy="564" r="4" fill="#ff9900"/>
<circle cx="600" cy="570" r="4" fill="#ff9900"/>
<circle cx="600" cy="576" r="4" fill="#ff9900"/>
<circle cx="600" cy="581" r="4" fill="#ff9900"/>
<circle cx="600" cy="587" r="4" fill="#ff9900"/>
<circle cx="600" cy="593" r="4" fill="#ff9900"/>
<circle cx="600" cy="599" r="4" fill="#ff9900"/>
<circle cx="600" cy="605" r="4" fill="#ff9900"/>
<circle cx="600" cy="610" r="4" fill="#ff9900"/>
<circle cx="600" cy="616" r="4" fill="#ff9900"/>
<circle cx="600" cy="622" r="4" fill="#ff9900"/>
<circle cx="600" cy="628" r="4" fill="#ff9900"/>
<circle cx="600" cy="634" r="4" fill="#ff9900"/>
<circle cx="600" cy="639" r="4" fill="#ff9900"/>
<circle cx="600" cy="645" r="4" fill="#ff9900"/>
<circle cx="600" cy="651" r="4" fill="#ff9900"/>
<circle cx="600" cy="657" r="4" fill="#ff9900"/>
<circle cx="600" cy="663" r="4" fill="#ff9900"/>
<circle cx="600" cy="668" r="4" fill="#ff9900"/>
<circle cx="600" cy="674" r="4" fill="#ff9900"/>
<circle cx="600" cy="680" r="4" fill="#ff9900"/>
<circle cx="600" cy="686" r="4" fill="#ff9900"/>
<circle cx="600" cy="692" r="4" fill="#ff9900"/>
<circle cx="600" cy="697" r="4" fill="#ff9900"/>
<circle cx="600" cy="703" r="4" fill="#ff9900"/>
<circle cx="600" cy="709" r="4" fill="#ff9900"/>
<circle cx="600" cy="715" r="4" fill="#ff9900"/>
<circle cx="600" cy="721" r="4" fill="#ff9900"/>
<circle cx="600" cy="726" r="4" fill="#ff9900"/>
<circle cx="600" cy="732" r="4" fill="#ff9900"/>
<circle cx="600" cy="738" r="4" fill="#ff9900"/>
<circle cx="600" cy="744" r="4" fill="#ff9900"/>
<circle cx="600" cy="750" r="4" fill="#ff9900"/>
</svg>
