<svg xmlns="http://www.w3.org/2000/svg" width="720" height="360">
  <rect width="100%" height="100%" fill="#0b0f1a"/>
  <g font-family="monospace" font-size="12" fill="#e6edf3">
    <rect x="40" y="40" width="180" height="80" rx="10" fill="#1f2a44" stroke="#4b6fa9"/>
    <text x="50" y="70">Repo</text><text x="50" y="90">git ls-files -> MERKLE_ROOT</text>
    <rect x="260" y="40" width="200" height="80" rx="10" fill="#1f2a44" stroke="#4b6fa9"/>
    <text x="270" y="70">Plan Gate</text><text x="270" y="90">TAU_* flags</text>
    <rect x="500" y="40" width="180" height="80" rx="10" fill="#1f2a44" stroke="#4b6fa9"/>
    <text x="510" y="70">Launcher</text><text x="510" y="90">proof gate + workers</text>
    <rect x="140" y="170" width="220" height="80" rx="10" fill="#1f2a44" stroke="#4b6fa9"/>
    <text x="150" y="200">Receipt</text><text x="150" y="220">JSON + CHAIN</text>
    <rect x="420" y="170" width="220" height="80" rx="10" fill="#1f2a44" stroke="#4b6fa9"/>
    <text x="430" y="200">Manifest</text><text x="430" y="220">STATUS + ROOT</text>
    <line x1="220" y1="80" x2="260" y2="80" stroke="#7aa2f7"/>
    <line x1="460" y1="80" x2="500" y2="80" stroke="#7aa2f7"/>
    <line x1="300" y1="210" x2="420" y2="210" stroke="#7aa2f7"/>
    <line x1="150" y1="120" x2="250" y2="170" stroke="#7aa2f7"/>
    <line x1="570" y1="120" x2="530" y2="170" stroke="#7aa2f7"/>
  </g>
</svg>
